<svg width="227" height="126" viewBox="0 0 227 126" fill="none" xmlns="http://www.w3.org/2000/svg">
<path d="M24.5703 2.7373C24.1449 3.20522 23.3067 4.52508 22.5732 6.54199C21.9592 8.23056 21.4499 10.3272 21.3135 12.6777V23.9043C21.5102 25.6353 22.49 27.9332 24.6123 30.8857C26.7525 33.8629 29.79 37.1505 33.5303 40.7559C41.1029 48.0554 50.7248 55.8995 60.6055 64.7383C70.2332 73.3508 79.8722 82.7197 86.7676 92.5566V12.6855C86.4733 7.69609 84.4398 4.32838 83.3223 2.48438L81.8164 0H108.875L106.387 2.7373C105.961 3.20522 105.123 4.52513 104.39 6.54199C103.776 8.23056 103.266 10.3272 103.13 12.6777V30.9512C104.755 33.7978 106.963 36.9055 109.633 40.2842C115.46 47.6595 122.841 55.5572 130.47 64.5176C137.951 73.3041 145.43 82.8565 150.74 92.8672C152.05 95.3366 153.237 97.8528 154.265 100.409C155.292 97.8527 156.48 95.3367 157.79 92.8672C163.101 82.8565 170.58 73.3041 178.061 64.5176C185.689 55.5572 193.07 47.6595 198.897 40.2842C201.567 36.9055 203.775 33.7978 205.4 30.9512V12.6777C205.264 10.3272 204.755 8.23056 204.141 6.54199C203.407 4.52511 202.569 3.20522 202.144 2.7373L199.655 0H226.714L225.208 2.48438C224.09 4.32838 222.057 7.69609 221.763 12.6855V113.312C222.057 118.302 224.09 121.67 225.208 123.514L226.714 125.998H199.655L202.144 123.261C202.569 122.793 203.407 121.473 204.141 119.456C204.755 117.767 205.264 115.67 205.4 113.319V45.25C205.373 45.2853 205.345 45.3211 205.317 45.3564C199.408 52.8351 191.533 61.3156 184.291 69.8213C176.902 78.5006 169.897 87.5034 165.018 96.7012C160.143 105.891 157.554 114.971 158.578 123.895L158.17 123.94C158.142 124.236 158.115 124.531 158.081 124.827L154.265 124.39L150.449 124.827L150.358 123.94L149.952 123.895C150.977 114.971 148.387 105.891 143.513 96.7012C142.74 95.2455 141.915 93.795 141.043 92.3496C140.09 90.77 139.081 89.1979 138.026 87.6318C137.734 87.1979 137.44 86.7639 137.141 86.3311C133.266 80.7238 128.827 75.21 124.239 69.8213C116.998 61.3156 109.122 52.8351 103.213 45.3564C103.185 45.3211 103.158 45.2853 103.13 45.25V113.319C103.266 115.67 103.776 117.767 104.39 119.456C105.123 121.473 105.961 122.793 106.387 123.261L108.875 125.998H81.8164L83.3223 123.514C84.4399 121.67 86.4735 118.302 86.7676 113.312V109.637C85.3098 105.642 83.0814 101.578 80.2012 97.4424C73.8715 88.3548 64.7681 79.4395 55.1504 70.8359C45.7172 62.3974 35.5221 54.0404 27.8516 46.6465C25.4727 44.3534 23.2603 42.0814 21.3135 39.8467V113.319C21.4498 115.67 21.9591 117.767 22.5732 119.456C23.3067 121.473 24.1449 122.793 24.5703 123.261L27.0586 125.998H0L1.50586 123.514C2.62351 121.67 4.65708 118.302 4.95117 113.312V12.6855C4.65687 7.69609 2.62344 4.32838 1.50586 2.48438L0 0H27.0586L24.5703 2.7373Z" fill="url(#paint0_linear_3_54)"/>
<defs>
<linearGradient id="paint0_linear_3_54" x1="113.357" y1="0" x2="113.357" y2="125.998" gradientUnits="userSpaceOnUse">
<stop offset="0.1875" stop-color="#71458F"/>
<stop offset="0.610577" stop-color="#C6A1DE"/>
<stop offset="0.942308" stop-color="#DBEFB7"/>
</linearGradient>
</defs>
</svg>
